<?xml version="1.0" encoding="UTF-8"?>
<svg width="200px" height="60px" viewBox="0 0 200 60" version="1.1" xmlns="http://www.w3.org/2000/svg" xmlns:xlink="http://www.w3.org/1999/xlink">
    <!-- Generator: Sketch 48.2 (47327) - http://www.bohemiancoding.com/sketch -->
    <title>phone_battery</title>
    <desc>Created with Sketch.</desc>
    <defs></defs>
    <g id="Assets" stroke="none" stroke-width="1" fill="none" fill-rule="evenodd" transform="translate(-40.000000, -497.000000)">
        <path d="M232,519 C230.895431,519 230,518.104569 230,517 L230,502 C230,500.343146 228.656854,499 227,499 L45,499 C43.3431458,499 42,500.343146 42,502 L42,552 C42,553.656854 43.3431458,555 45,555 L227,555 C228.656854,555 230,553.656854 230,552 L230,537 C230,535.895431 230.895431,535 232,535 L235,535 C236.656854,535 238,533.656854 238,532 L238,522 C238,520.343146 236.656854,519 235,519 L232,519 Z M232,517 L235,517 C237.761424,517 240,519.238576 240,522 L240,532 C240,534.761424 237.761424,537 235,537 L232,537 L232,552 C232,554.761424 229.761424,557 227,557 L45,557 C42.2385763,557 40,554.761424 40,552 L40,502 C40,499.238576 42.2385763,497 45,497 L227,497 C229.761424,497 232,499.238576 232,502 L232,517 Z" id="phone_battery" fill="#404040" fill-rule="nonzero"></path>
    </g>
</svg>