<?xml version="1.0" encoding="UTF-8"?>
<svg width="150px" height="60px" viewBox="0 0 150 60" version="1.1" xmlns="http://www.w3.org/2000/svg" xmlns:xlink="http://www.w3.org/1999/xlink">
    <!-- Generator: Sketch 48.2 (47327) - http://www.bohemiancoding.com/sketch -->
    <title>portal_battery</title>
    <desc>Created with Sketch.</desc>
    <defs></defs>
    <g id="Assets" stroke="none" stroke-width="1" fill="none" fill-rule="evenodd" transform="translate(-40.000000, -403.000000)">
        <path d="M182,425 C180.895431,425 180,424.104569 180,423 L180,408 C180,406.343146 178.656854,405 177,405 L45,405 C43.3431458,405 42,406.343146 42,408 L42,458 C42,459.656854 43.3431458,461 45,461 L177,461 C178.656854,461 180,459.656854 180,458 L180,443 C180,441.895431 180.895431,441 182,441 L185,441 C186.656854,441 188,439.656854 188,438 L188,428 C188,426.343146 186.656854,425 185,425 L182,425 Z M182,423 L185,423 C187.761424,423 190,425.238576 190,428 L190,438 C190,440.761424 187.761424,443 185,443 L182,443 L182,458 C182,460.761424 179.761424,463 177,463 L45,463 C42.2385763,463 40,460.761424 40,458 L40,408 C40,405.238576 42.2385763,403 45,403 L177,403 C179.761424,403 182,405.238576 182,408 L182,423 Z" id="portal_battery" fill="#404040" fill-rule="nonzero"></path>
    </g>
</svg>