<?xml version="1.0" encoding="UTF-8"?>
<svg width="20px" height="20px" viewBox="0 0 20 20" version="1.1" xmlns="http://www.w3.org/2000/svg" xmlns:xlink="http://www.w3.org/1999/xlink">
    <!-- Generator: Sketch 48.2 (47327) - http://www.bohemiancoding.com/sketch -->
    <title>tick_icon</title>
    <desc>Created with Sketch.</desc>
    <defs></defs>
    <g id="Assets" stroke="none" stroke-width="1" fill="none" fill-rule="evenodd" transform="translate(-50.000000, -307.000000)">
        <g id="tick_icon" transform="translate(50.000000, 307.000000)" fill="#52CC95" fill-rule="nonzero">
            <polygon id="Rectangle-4-Copy" transform="translate(10.000000, 8.750000) rotate(-45.000000) translate(-10.000000, -8.750000) " points="15 9.5 15 11.5 5 11.5 5 6 7 6 7 9.5"></polygon>
            <path d="M10,2 C5.581722,2 2,5.581722 2,10 C2,14.418278 5.581722,18 10,18 C14.418278,18 18,14.418278 18,10 C18,5.581722 14.418278,2 10,2 Z M10,0 C15.5228475,0 20,4.4771525 20,10 C20,15.5228475 15.5228475,20 10,20 C4.4771525,20 0,15.5228475 0,10 C0,4.4771525 4.4771525,0 10,0 Z" id="Rectangle-9-Copy-2"></path>
        </g>
    </g>
</svg>